<?xml version="1.0" standalone="no"?>
<!DOCTYPE svg PUBLIC "-//W3C//DTD SVG 20010904//EN"
 "http://www.w3.org/TR/2001/REC-SVG-20010904/DTD/svg10.dtd">
<svg version="1.0" xmlns="http://www.w3.org/2000/svg"
 width="300.000000pt" height="300.000000pt" viewBox="0 0 300.000000 300.000000"
 preserveAspectRatio="xMidYMid meet">

<g transform="translate(0.000000,300.000000) scale(0.100000,-0.100000)"
fill="#000000" stroke="none">
<path d="M2425 2868 c-127 -17 -117 -8 -787 -676 -339 -339 -622 -627 -627
-641 -6 -14 -40 -144 -75 -288 -70 -282 -71 -300 -25 -349 47 -50 64 -49 330
16 134 33 264 67 289 75 40 13 122 91 662 633 339 339 623 632 633 651 34 68
46 118 46 191 0 92 -17 151 -65 223 -84 127 -221 186 -381 165z m125 -263 c63
-33 90 -119 56 -183 -8 -15 -277 -288 -598 -608 l-583 -580 -118 -28 c-65 -16
-121 -26 -124 -23 -3 3 7 59 23 124 l28 118 596 598 596 597 47 0 c27 0 61 -7
77 -15z"/>
<path d="M525 2736 c-108 -34 -200 -112 -244 -206 l-26 -55 0 -970 0 -970 31
-65 c38 -80 110 -155 184 -189 l55 -26 970 0 970 0 65 31 c68 32 149 104 176
156 42 81 44 104 44 601 0 519 -1 527 -55 563 -54 35 -147 14 -178 -40 -9 -15
-13 -152 -17 -501 -5 -442 -6 -482 -23 -507 -42 -61 2 -59 -989 -56 -852 3
-905 4 -930 21 -61 42 -59 -2 -56 989 3 822 4 905 20 926 41 59 22 57 545 62
469 5 482 6 510 26 15 11 34 38 41 60 11 33 11 45 -4 82 -10 28 -28 51 -48 63
-29 18 -55 19 -516 18 -363 0 -495 -4 -525 -13z"/>
</g>
</svg>
